{
  "accessors": [
    {
      "bufferView": 3,
      "componentType": 5126,
      "count": 406,
      "type": "VEC2"
    },
    {
      "bufferView": 4,
      "componentType": 5126,
      "count": 406,
      "type": "VEC3"
    },
    {
      "bufferView": 5,
      "componentType": 5126,
      "count": 406,
      "type": "VEC4"
    },
    {
      "bufferView": 6,
      "componentType": 5126,
      "count": 406,
      "max": [
        0.02128091,
        0.06284806,
        0.0138090011
      ],
      "min": [
        -0.02128091,
        -4.773855E-5,
        -0.013809
      ],
      "type": "VEC3"
    },
    {
      "bufferView": 7,
      "componentType": 5123,
      "count": 2046,
      "type": "SCALAR"
    }
  ],
  "asset": {
    "generator": "glTF Tools for Unity",
    "version": "2.0"
  },
  "bufferViews": [
    {
      "buffer": 0,
      "byteLength": 1,
      "byteOffset": 0
    },
    {
      "buffer": 0,
      "byteLength": 1,
      "byteOffset": 0
    },
    {
      "buffer": 0,
      "byteLength": 1,
      "byteOffset": 0
    },
    {
      "buffer": 0,
      "byteLength": 3248,
      "byteOffset": 8
    },
    {
      "buffer": 0,
      "byteLength": 4872,
      "byteOffset": 3256
    },
    {
      "buffer": 0,
      "byteLength": 6496,
      "byteOffset": 8128
    },
    {
      "buffer": 0,
      "byteLength": 4872,
      "byteOffset": 14624
    },
    {
      "buffer": 0,
      "byteLength": 4092,
      "byteOffset": 19496
    }
  ],
  "buffers": [
    {
      "byteLength": 23588,
      "uri": "Avocado.bin"
    }
  ],
  "images": [
    {
      "uri": "image0.png"
    },
    {
      "uri": "image1.png"
    },
    {
      "uri": "image2.png"
    }
  ],
  "materials": [
    {
      "name": "2256_Avocado_d",
      "normalTexture": {
        "index": 2
      },
      "pbrMetallicRoughness": {
        "baseColorTexture": {
          "index": 0
        },
        "metallicRoughnessTexture": {
          "index": 1
        }
      }
    }
  ],
  "meshes": [
    {
      "name": "Avocado",
      "primitives": [
        {
          "attributes": {
            "TEXCOORD_0": 0,
            "NORMAL": 1,
            "TANGENT": 2,
            "POSITION": 3
          },
          "indices": 4,
          "material": 0
        }
      ]
    }
  ],
  "nodes": [
    {
      "mesh": 0,
      "name": "Avocado",
      "rotation": [
        0.0,
        1.0,
        0.0,
        0.0
      ]
    }
  ],
  "scene": 0,
  "scenes": [
    {
      "nodes": [
        0
      ]
    }
  ],
  "textures": [
    {
      "source": 0
    },
    {
      "source": 1
    },
    {
      "source": 2
    }
  ]
}